<svg width="113" height="26" viewBox="0 0 113 26" fill="none" xmlns="http://www.w3.org/2000/svg">
<g clip-path="url(#clip0)">
<path fill-rule="evenodd" clip-rule="evenodd" d="M97.7176 16.5068C97.7176 15.9107 98.046 15.2037 98.428 14.9341C99.9572 13.8555 103.517 14.5478 103.517 16.5068C103.517 18.2952 100.081 19.1945 98.5125 18.1072C98.0925 17.8157 97.7176 17.1933 97.7176 16.5068ZM96.2673 10.0469C96.2673 10.8223 96.8565 11.4301 97.6049 11.4301C97.9361 11.4301 100.572 9.44053 102.875 10.9404C103.588 11.4039 103.516 11.6983 103.516 12.8148C101.491 11.4126 98.218 11.6152 96.5703 13.1296C94.748 14.8058 94.903 18.4439 96.5971 19.8534C98.5971 21.5194 101.527 21.5354 103.627 20.0807C103.765 20.6157 104.305 21.0384 104.911 20.9422C105.469 20.8532 105.97 20.3358 105.97 19.7353V11.6604C105.97 11.0541 105.658 10.3967 105.415 10.044C102.91 6.41318 96.2673 7.95382 96.2673 10.0469Z" fill="#274FED"/>
<path fill-rule="evenodd" clip-rule="evenodd" d="M72.8457 14.5442C72.8457 10.326 77.4954 8.65565 79.2811 12.7339C81.0725 16.8238 75.9225 20.7709 73.4912 16.7612C73.1699 16.2321 72.8471 15.3648 72.8471 14.5427L72.8457 14.5442ZM79.649 9.23868C79.3347 9.15122 79.2036 8.98506 78.9654 8.79266C77.5278 7.63682 75.463 7.65285 73.8858 8.46763C70.6893 10.1176 69.2235 15.0995 71.9986 18.7653C73.4757 20.7141 76.1522 21.5434 78.389 20.3919C78.9668 20.0946 79.1825 19.8279 79.649 19.5043C79.6885 21.3292 81.8801 20.9823 81.8801 19.6194V6.00872C81.8801 4.5978 79.6293 3.97979 79.6448 6.34979C79.6504 7.31178 79.649 8.27523 79.649 9.23868Z" fill="#274FED"/>
<path fill-rule="evenodd" clip-rule="evenodd" d="M90.2447 12.8147H86.1179V7.39261H90.2447C93.2369 7.39261 93.3567 12.8147 90.2447 12.8147ZM83.6641 6.35482V19.2732C83.6641 21.7583 86.1179 21.1855 86.1179 19.8504V15.4675C89.0439 15.4675 91.6696 15.9048 93.5104 14.0012C96.5857 10.8193 94.8888 4.7413 89.7979 4.7413H85.2257C84.249 4.7413 83.6641 5.34765 83.6641 6.35628V6.35482Z" fill="#274FED"/>
<path fill-rule="evenodd" clip-rule="evenodd" d="M64.5917 10.7392C66.7594 10.7392 67.1442 11.9227 67.8264 13.392H61.9152C62.0097 12.2186 63.2852 10.7392 64.5931 10.7392H64.5917ZM59.5728 13.9692C59.5728 15.9208 59.6559 16.9907 60.7524 18.6319C62.8483 21.7715 66.7637 21.445 68.5142 19.1785C69.1569 18.3477 69.7361 17.6378 69.0808 16.7108C68.0913 15.3116 66.9215 17.5125 66.8567 17.5795C64.899 19.6085 62.0787 17.8288 61.9166 15.8159C63.0653 15.8159 69.0793 16.0287 69.6417 15.6162C70.0293 15.332 70.2041 14.886 70.1294 14.2534C69.9236 12.5131 69.5318 11.1327 68.3619 9.8428C66.1928 7.45385 62.424 7.74245 60.5537 10.831C60.1605 11.4811 59.5742 12.9693 59.5742 13.9706L59.5728 13.9692Z" fill="#274FED"/>
<path fill-rule="evenodd" clip-rule="evenodd" d="M39.4956 12.4689C39.4956 14.9745 40.0988 16.9684 41.5857 18.4974C44.0861 21.0685 47.7323 21.7142 50.6047 19.92C54.0691 17.7555 51.9309 16.5064 51.6533 16.5064C50.2213 16.5064 51.0416 16.6813 49.3771 17.7293C44.6047 20.7304 39.3814 14.2005 43.2207 9.05677C44.5258 7.30915 47.2023 6.66054 49.3771 8.01899C50.5187 8.73319 50.6935 9.35703 51.3178 9.35703C52.2537 9.35703 53.9718 7.91113 50.3792 5.71458C47.5476 3.983 44.0861 4.66805 41.7535 7.07886C40.9698 7.88926 40.764 8.23908 40.2369 9.31768C39.8099 10.1937 39.4941 11.2096 39.4941 12.4718L39.4956 12.4689Z" fill="#274FED"/>
<path fill-rule="evenodd" clip-rule="evenodd" d="M106.752 6.35629V19.3898C106.752 21.4974 109.206 21.2453 109.206 19.8519V5.8957C109.206 4.44688 106.752 4.19618 106.752 6.35775V6.35629Z" fill="#274FED"/>
<path fill-rule="evenodd" clip-rule="evenodd" d="M55.78 9.70132C55.491 8.58045 53.5488 8.9842 53.5488 10.1634V19.8518C53.5488 21.0251 55.3994 21.3618 55.8814 20.1885C56.2606 19.2629 55.7109 13.6192 56.1422 12.615C57.0146 10.5875 58.7412 11.6865 59.6108 11.2434C60.4832 10.8003 60.8722 8.89383 58.121 8.89383C56.9709 8.89383 56.4621 9.22761 55.7786 9.70132H55.78Z" fill="#274FED"/>
<path fill-rule="evenodd" clip-rule="evenodd" d="M109.987 19.7366C109.987 21.5542 112.999 22.0513 112.999 19.5064C112.999 17.6961 109.987 17.6378 109.987 19.7366Z" fill="#274FED"/>
<path fill-rule="evenodd" clip-rule="evenodd" d="M0 12.9356C0 16.2923 1.36997 19.8109 3.56868 22.0657C7.87166 26.4792 14.1394 27.2634 19.3247 23.9912C19.7856 23.7011 20.5326 23.1239 20.8948 22.7537C23.9955 19.5762 23.4656 18.7512 23.4656 14.1949V8.69988C23.4656 6.94498 24.0124 5.89408 24.7764 4.90439C25.7475 3.64797 27.233 3.20633 28.8905 3.20633C32.9172 3.20633 35.4528 8.70134 32.2421 12.1674C31.1117 13.3874 29.1583 14.0535 27.3866 13.574C26.813 13.418 26.8116 13.2795 26.1224 13.2795C24.7214 13.2795 23.9152 15.635 25.8024 16.3565C28.7538 17.4846 31.6248 16.6961 33.9658 14.7502C39.2301 10.3761 36.6142 -0.000305176 28.5579 -0.000305176C27.2006 -0.000305176 25.6558 0.471945 24.758 0.992295C22.7228 2.17292 21.1626 4.12605 20.6538 6.59225C20.3437 8.09354 20.4762 14.2619 20.4776 16.2544C20.479 18.6448 19.9984 19.8284 18.0886 21.1096C14.3226 23.6355 9.21908 23.481 6.06055 20.1753C5.30227 19.3824 4.544 18.4772 4.05634 17.4409C2.5116 14.1555 2.80899 10.2784 4.82448 7.27876C5.04012 6.95664 5.11905 6.92603 5.32905 6.65638C5.54329 6.38236 5.57993 6.30511 5.83786 6.03692C7.08097 4.7426 9.51929 3.20633 11.9548 3.20633C13.2712 3.20633 13.787 3.14511 15.102 3.50076C16.0872 3.76749 15.9576 4.00799 17.157 4.00799C18.1704 4.00799 18.3747 2.97166 18.3747 2.17729C18.3747 0.620616 14.3917 0.00260995 12.6186 0.00260995C10.4918 0.00260995 9.00062 0.514214 7.50944 1.12931C6.76244 1.43831 6.1437 1.82894 5.51087 2.26766C5.17824 2.49796 4.93864 2.70493 4.63279 2.96292C4.45662 3.11159 4.40165 3.19467 4.23252 3.35063C3.23746 4.26744 2.39039 5.23672 1.7336 6.48876C1.50386 6.92749 1.35305 7.10677 1.15432 7.60671C0.521489 9.19546 0.00140943 10.7419 0.00140943 12.9385L0 12.9356Z" fill="#274FED"/>
</g>
<defs>
<clipPath id="clip0">
<rect width="113" height="26" fill="white"/>
</clipPath>
</defs>
</svg>